<svg xmlns="http://www.w3.org/2000/svg" viewBox="0 0 64 64" id="sewing-machine"><path d="M59.34,6.68H55.4V3.32C55.4,1.49,53.91,0,52.08,0c-1.83,0-3.32,1.49-3.32,3.32v3.35H4.66c-1.98,0-3.6,1.61-3.6,3.6v18.93
		c0,1.98,1.61,3.6,3.6,3.6h2.31v7.3c0,0.54,0.43,0.97,0.97,0.97c0.54,0,0.97-0.43,0.97-0.97v-1.37h2.44c0.54,0,0.97-0.43,0.97-0.97
		s-0.43-0.97-0.97-0.97H8.91V32.8h3.46c1.95,0,3.57-1.59,3.6-3.54l0.07-4.52h16.6c0.91,0,1.66,0.74,1.66,1.66v18.5
		c0,0.91-0.74,1.66-1.66,1.66H2.03c-0.54,0-0.97,0.43-0.97,0.97v7.63c0,4.88,3.97,8.85,8.85,8.85h49.44c1.98,0,3.6-1.61,3.6-3.6
		V10.27C62.94,8.29,61.33,6.68,59.34,6.68z M50.69,3.32c0-0.76,0.62-1.38,1.38-1.38c0.76,0,1.38,0.62,1.38,1.38v3.35h-2.77V3.32z
		 M12.37,30.86H4.66C3.74,30.86,3,30.12,3,29.21V10.27c0-0.91,0.74-1.66,1.66-1.66h9.45v15.14l-0.08,5.48
		C14.01,30.13,13.27,30.86,12.37,30.86z M3,55.15v-6.66h23.29v13.57H9.91C6.1,62.06,3,58.96,3,55.15z M61,60.4
		c0,0.91-0.74,1.66-1.66,1.66H28.23V48.49h4.4c1.98,0,3.6-1.61,3.6-3.6v-18.5c0-1.98-1.61-3.6-3.6-3.6H16.05V8.62h43.3
		c0.91,0,1.66,0.74,1.66,1.66V60.4z"></path><path d="M48.78 32.4c-4.63 0-8.4 3.77-8.4 8.4 0 4.63 3.77 8.4 8.4 8.4s8.4-3.77 8.4-8.4C57.19 36.17 53.42 32.4 48.78 32.4zM48.78 47.26c-3.56 0-6.46-2.9-6.46-6.46s2.9-6.46 6.46-6.46c3.56 0 6.46 2.9 6.46 6.46S52.35 47.26 48.78 47.26zM48.78 24.49c2.41 0 4.37-1.96 4.37-4.38 0-2.41-1.96-4.37-4.37-4.37-2.41 0-4.38 1.96-4.38 4.37C44.41 22.53 46.37 24.49 48.78 24.49zM48.78 17.68c1.34 0 2.44 1.09 2.44 2.44 0 1.34-1.09 2.44-2.44 2.44s-2.44-1.09-2.44-2.44C46.35 18.78 47.44 17.68 48.78 17.68z"></path></svg>
