<svg id="svg" version="1.1" xmlns="http://www.w3.org/2000/svg" xmlns:xlink="http://www.w3.org/1999/xlink" width="400" height="400" viewBox="0, 0, 400,400"><g id="svgg"><path id="path0" d="M268.400 5.346 C 264.399 10.801,250.383 23.659,241.600 29.932 C 229.584 38.513,218.127 45.440,205.744 51.610 L 200.088 54.428 195.144 52.015 C 190.624 49.809,187.224 48.020,181.800 44.995 C 177.216 42.439,166.689 35.733,162.466 32.679 C 159.972 30.876,156.822 28.631,155.466 27.690 C 152.148 25.389,151.282 24.761,150.408 24.025 C 150.001 23.681,149.247 23.059,148.734 22.642 C 143.149 18.108,135.857 10.930,132.139 6.308 L 129.680 3.252 128.744 4.473 C 127.020 6.723,126.800 7.802,126.800 14.022 C 126.800 17.544,126.962 20.053,127.200 20.200 C 127.435 20.345,127.600 22.685,127.600 25.866 C 127.600 35.201,130.351 41.216,139.553 52.000 C 140.585 53.210,142.087 55.109,142.891 56.220 C 145.903 60.387,156.640 70.074,164.110 75.365 C 171.335 80.483,178.826 80.056,184.352 74.213 C 185.503 72.996,186.525 72.000,186.623 72.000 C 186.720 72.000,186.802 120.555,186.805 179.900 C 186.808 239.245,186.919 288.205,187.052 288.700 L 187.293 289.600 200.247 289.600 L 213.200 289.600 213.200 180.800 C 213.200 120.960,213.335 72.002,213.500 72.005 C 213.665 72.008,214.660 72.991,215.712 74.190 C 219.793 78.843,226.669 80.271,232.143 77.602 C 243.230 72.196,263.821 51.043,270.576 38.120 C 272.258 34.902,272.770 32.023,272.786 25.700 C 272.796 21.693,272.936 20.000,273.258 20.000 C 274.163 20.000,273.448 8.519,272.405 6.300 C 271.914 5.255,271.352 4.400,271.156 4.400 C 270.960 4.400,270.800 4.141,270.800 3.824 C 270.800 2.568,270.121 2.999,268.400 5.346 M119.800 117.971 C 105.553 118.234,105.254 118.302,102.900 121.773 L 101.600 123.690 101.600 132.845 L 101.600 142.000 129.000 142.000 L 156.400 142.000 156.400 132.984 C 156.400 122.144,156.039 121.048,151.600 118.404 C 150.443 117.716,140.745 117.583,119.800 117.971 M250.400 117.878 C 247.850 118.308,245.543 120.108,244.246 122.680 C 243.708 123.745,243.600 125.474,243.600 132.980 L 243.600 142.000 271.227 142.000 L 298.853 142.000 298.727 132.700 C 298.571 121.289,297.666 119.258,292.171 117.983 C 290.654 117.632,252.431 117.535,250.400 117.878 " stroke="none" fill="#e1e6f7" fill-rule="evenodd"></path><path id="path1" d="M165.919 4.700 C 160.764 12.824,158.151 17.371,155.446 22.929 C 154.223 25.443,153.540 25.984,152.657 25.139 C 152.347 24.842,151.315 23.970,150.363 23.200 C 142.502 16.841,131.876 6.229,131.131 3.992 C 131.037 3.711,130.741 3.553,130.473 3.642 C 129.800 3.867,137.149 12.311,141.255 16.031 C 145.113 19.526,147.408 21.553,148.734 22.637 C 149.247 23.057,150.001 23.681,150.408 24.025 C 151.282 24.761,152.148 25.389,155.466 27.690 C 156.822 28.631,159.972 30.876,162.466 32.679 C 166.689 35.733,177.216 42.439,181.800 44.995 C 187.224 48.020,190.624 49.809,195.144 52.015 L 200.088 54.428 205.744 51.610 C 218.127 45.440,229.584 38.513,241.600 29.932 C 250.118 23.849,263.156 11.985,267.832 6.062 L 270.152 3.123 268.776 1.917 C 268.019 1.253,266.983 0.551,266.474 0.355 C 265.953 0.155,244.415 0.000,217.224 0.000 L 168.901 0.000 165.919 4.700 M272.786 25.700 C 272.770 32.023,272.258 34.902,270.576 38.120 C 263.822 51.041,243.228 72.197,232.143 77.602 C 226.669 80.271,219.793 78.843,215.712 74.190 C 214.660 72.991,213.665 72.008,213.500 72.005 C 213.335 72.002,213.200 120.962,213.200 180.806 L 213.200 289.611 254.500 289.445 C 294.479 289.285,300.572 289.145,301.380 288.366 C 301.589 288.165,302.253 288.000,302.856 288.000 C 303.459 288.000,304.064 287.820,304.200 287.600 C 304.336 287.380,304.887 287.200,305.424 287.200 C 305.961 287.200,306.400 287.020,306.400 286.800 C 306.400 286.580,306.760 286.400,307.200 286.400 C 307.640 286.400,308.000 286.220,308.000 286.000 C 308.000 285.780,308.360 285.600,308.800 285.600 C 309.240 285.600,309.600 285.420,309.600 285.200 C 309.600 284.980,309.960 284.800,310.400 284.800 C 310.840 284.800,311.200 284.620,311.200 284.400 C 311.200 284.180,311.425 284.000,311.700 283.999 C 311.975 283.999,312.830 283.459,313.600 282.800 C 314.370 282.141,315.138 281.601,315.307 281.601 C 315.709 281.600,320.800 276.508,320.800 276.107 C 320.801 275.938,321.270 275.260,321.844 274.600 C 322.964 273.312,325.200 269.000,325.200 268.129 C 325.200 267.838,325.380 267.600,325.600 267.600 C 325.820 267.600,326.000 267.150,326.000 266.600 C 326.000 266.050,326.180 265.600,326.400 265.600 C 326.620 265.600,326.800 264.970,326.800 264.200 C 326.800 263.430,326.980 262.800,327.200 262.800 C 327.420 262.800,327.600 261.900,327.600 260.800 C 327.600 259.700,327.780 258.800,328.000 258.800 C 328.264 258.800,328.400 246.275,328.400 222.024 C 328.400 197.937,328.262 185.162,328.000 185.000 C 327.309 184.573,327.463 91.101,328.158 89.440 C 329.471 86.297,333.713 84.974,336.681 86.784 C 339.360 88.417,339.200 85.503,339.200 132.793 C 339.200 169.772,339.279 175.655,339.778 175.847 C 340.334 176.060,342.754 174.601,344.761 172.842 C 345.290 172.379,345.856 172.000,346.019 172.000 C 346.182 172.000,346.893 171.460,347.600 170.800 C 348.307 170.140,349.037 169.600,349.224 169.600 C 349.411 169.600,349.977 169.191,350.482 168.691 C 350.987 168.192,352.030 167.345,352.800 166.810 C 353.570 166.275,354.491 165.514,354.847 165.119 C 355.203 164.724,355.626 164.400,355.786 164.400 C 355.947 164.400,356.583 163.860,357.200 163.200 C 357.817 162.540,358.537 162.000,358.800 162.000 C 359.063 162.000,359.783 161.460,360.400 160.800 C 361.017 160.140,361.685 159.600,361.885 159.600 C 362.085 159.600,362.607 159.267,363.044 158.860 C 363.481 158.452,364.820 157.434,366.019 156.597 C 367.219 155.759,368.290 154.959,368.400 154.818 C 368.510 154.677,369.230 154.129,370.000 153.600 C 370.770 153.071,371.691 152.314,372.047 151.919 C 372.403 151.524,372.826 151.200,372.986 151.200 C 373.147 151.200,373.783 150.660,374.400 150.000 C 375.017 149.340,375.737 148.800,376.000 148.800 C 376.263 148.800,376.983 148.260,377.600 147.600 C 378.217 146.940,378.897 146.400,379.112 146.400 C 379.327 146.400,380.245 145.680,381.152 144.800 C 382.059 143.920,382.989 143.200,383.219 143.200 C 383.448 143.200,384.053 142.795,384.563 142.300 C 385.073 141.805,386.526 140.680,387.793 139.800 C 389.059 138.920,390.698 137.615,391.435 136.900 C 392.171 136.185,392.945 135.600,393.155 135.600 C 393.709 135.600,397.200 132.024,397.200 131.457 C 397.200 131.193,397.560 130.717,398.000 130.400 C 398.440 130.083,398.800 129.539,398.800 129.192 C 398.800 128.844,399.025 128.335,399.300 128.060 C 399.663 127.697,399.800 125.577,399.800 120.313 C 399.800 114.872,399.675 113.025,399.300 112.900 C 399.025 112.808,398.800 112.388,398.800 111.967 C 398.800 111.545,398.620 111.200,398.400 111.200 C 398.180 111.200,398.000 110.930,398.000 110.600 C 398.000 110.270,397.850 110.000,397.668 110.000 C 397.485 110.000,397.080 109.510,396.768 108.911 C 396.455 108.311,395.525 107.120,394.700 106.262 C 393.875 105.405,393.200 104.521,393.200 104.299 C 393.200 104.076,392.859 103.598,392.442 103.236 C 392.025 102.875,391.350 102.017,390.942 101.331 C 389.959 99.678,386.365 95.036,385.937 94.867 C 385.752 94.793,385.600 94.551,385.600 94.327 C 385.600 94.104,385.060 93.417,384.400 92.800 C 383.740 92.183,383.200 91.463,383.200 91.200 C 383.200 90.937,382.660 90.217,382.000 89.600 C 381.340 88.983,380.800 88.319,380.800 88.124 C 380.800 87.928,380.080 86.972,379.200 86.000 C 378.320 85.028,377.600 84.072,377.600 83.876 C 377.600 83.681,377.060 83.017,376.400 82.400 C 375.740 81.783,375.200 81.137,375.200 80.964 C 375.200 80.578,371.702 76.044,370.716 75.153 C 370.322 74.797,370.000 74.329,370.000 74.112 C 370.000 73.896,369.460 73.154,368.800 72.463 C 368.140 71.772,367.600 71.063,367.600 70.888 C 367.600 70.712,366.880 69.772,366.000 68.800 C 365.120 67.828,364.400 66.872,364.400 66.676 C 364.400 66.481,363.860 65.817,363.200 65.200 C 362.540 64.583,362.000 63.908,362.000 63.699 C 362.000 63.490,361.460 62.754,360.800 62.063 C 360.140 61.372,359.600 60.692,359.600 60.551 C 359.600 60.409,359.283 60.003,358.897 59.647 C 358.510 59.291,357.656 58.190,357.000 57.200 C 356.344 56.210,355.490 55.109,355.103 54.753 C 354.717 54.397,354.400 53.937,354.400 53.731 C 354.400 53.525,353.770 52.669,353.000 51.828 C 352.230 50.987,351.600 50.150,351.600 49.968 C 351.600 49.786,351.191 49.223,350.691 48.718 C 350.192 48.213,349.345 47.170,348.810 46.400 C 348.275 45.630,347.514 44.709,347.119 44.353 C 346.724 43.997,346.400 43.574,346.400 43.414 C 346.400 43.253,345.860 42.617,345.200 42.000 C 344.540 41.383,344.000 40.708,344.000 40.499 C 344.000 40.290,343.475 39.569,342.833 38.897 C 342.190 38.225,341.425 37.232,341.133 36.690 C 339.280 33.263,333.163 27.159,330.321 25.901 C 329.705 25.628,329.200 25.269,329.200 25.102 C 329.200 24.936,328.840 24.800,328.400 24.800 C 327.960 24.800,327.600 24.620,327.600 24.400 C 327.600 24.180,327.240 24.000,326.800 24.000 C 326.360 24.000,326.000 23.820,326.000 23.600 C 326.000 23.380,325.640 23.200,325.200 23.200 C 324.760 23.200,324.400 23.020,324.400 22.800 C 324.400 22.580,324.040 22.400,323.600 22.400 C 323.160 22.400,322.800 22.220,322.800 22.000 C 322.800 21.780,322.170 21.600,321.400 21.600 C 320.630 21.600,320.000 21.420,320.000 21.200 C 320.000 20.980,319.280 20.800,318.400 20.800 C 317.520 20.800,316.800 20.620,316.800 20.400 C 316.800 20.138,309.200 20.000,294.800 20.000 L 272.800 20.000 272.786 25.700 M127.279 26.600 C 127.210 33.148,127.391 34.277,129.106 38.000 C 130.287 40.562,136.327 49.180,139.199 52.400 C 139.689 52.950,140.509 53.942,141.020 54.604 L 141.949 55.809 140.763 60.004 C 137.540 71.403,135.994 78.349,134.020 90.300 C 133.204 95.243,132.129 105.901,131.819 112.136 C 131.700 114.520,131.502 116.635,131.378 116.836 C 131.252 117.040,126.609 117.200,120.831 117.200 C 106.682 117.200,104.568 117.730,102.122 121.891 L 101.000 123.800 101.000 133.000 L 101.000 142.200 128.600 142.400 L 156.200 142.600 156.315 155.400 C 156.475 173.286,156.496 173.240,145.493 178.753 C 141.251 180.878,139.600 181.903,139.600 182.410 C 139.600 183.649,144.842 199.141,146.567 203.000 C 147.059 204.100,147.891 206.080,148.416 207.400 C 155.119 224.254,173.641 252.471,185.159 263.375 L 186.400 264.550 186.400 277.075 C 186.400 283.964,186.535 289.600,186.700 289.600 C 186.996 289.600,186.937 72.404,186.641 72.108 C 186.557 72.024,185.537 72.961,184.374 74.191 C 178.825 80.058,171.347 80.491,164.110 75.365 C 156.640 70.074,145.903 60.387,142.891 56.220 C 142.087 55.109,140.585 53.210,139.553 52.000 C 130.519 41.413,128.015 36.085,127.615 26.600 L 127.346 20.200 127.279 26.600 M151.600 118.404 C 156.039 121.048,156.400 122.144,156.400 132.984 L 156.400 142.000 129.000 142.000 L 101.600 142.000 101.600 132.845 L 101.600 123.690 102.900 121.773 C 105.254 118.302,105.553 118.234,119.800 117.971 C 140.745 117.583,150.443 117.716,151.600 118.404 M292.171 117.983 C 297.666 119.258,298.571 121.289,298.727 132.700 L 298.853 142.000 271.227 142.000 L 243.600 142.000 243.600 132.980 C 243.600 117.107,242.487 117.729,271.000 117.664 C 281.780 117.639,291.307 117.783,292.171 117.983 M298.720 154.400 C 298.920 174.165,299.799 172.655,283.219 181.050 C 270.476 187.502,271.928 187.517,258.569 180.800 C 247.594 175.281,245.049 173.410,244.086 170.154 C 243.562 168.379,243.363 143.170,243.869 142.664 C 244.018 142.516,256.393 142.441,271.369 142.497 L 298.600 142.600 298.720 154.400 " stroke="none" fill="#5bd4fc" fill-rule="evenodd"></path><path id="path2" d="M133.477 0.280 C 131.849 0.702,129.338 3.600,130.600 3.600 C 130.930 3.600,131.200 3.777,131.200 3.993 C 131.200 5.534,142.395 16.754,150.363 23.200 C 151.315 23.970,152.347 24.842,152.657 25.139 C 153.540 25.984,154.223 25.443,155.446 22.929 C 157.990 17.701,161.821 11.021,166.070 4.400 C 167.270 2.530,168.386 0.775,168.550 0.500 C 168.843 0.007,135.342 -0.203,133.477 0.280 M83.200 20.400 C 83.200 20.620,82.480 20.800,81.600 20.800 C 80.720 20.800,80.000 20.980,80.000 21.200 C 80.000 21.420,79.370 21.600,78.600 21.600 C 77.830 21.600,77.200 21.780,77.200 22.000 C 77.200 22.220,76.840 22.400,76.400 22.400 C 75.960 22.400,75.600 22.580,75.600 22.800 C 75.600 23.020,75.240 23.200,74.800 23.200 C 74.360 23.200,74.000 23.380,74.000 23.600 C 74.000 23.820,73.640 24.000,73.200 24.000 C 72.760 24.000,72.400 24.180,72.400 24.400 C 72.400 24.620,72.128 24.800,71.795 24.800 C 71.010 24.800,69.726 25.527,68.086 26.900 C 67.363 27.505,66.643 28.005,66.486 28.011 C 65.994 28.029,63.025 30.934,62.000 32.400 C 61.462 33.170,60.687 34.160,60.277 34.600 C 59.867 35.040,59.251 35.938,58.907 36.595 C 58.563 37.252,57.768 38.269,57.141 38.855 C 56.513 39.442,56.000 40.137,56.000 40.400 C 56.000 40.663,55.460 41.383,54.800 42.000 C 54.140 42.617,53.600 43.253,53.600 43.414 C 53.600 43.574,53.276 43.997,52.881 44.353 C 52.486 44.709,51.723 45.630,51.185 46.400 C 50.648 47.170,49.712 48.322,49.104 48.959 C 48.497 49.597,48.000 50.274,48.000 50.463 C 48.000 50.652,47.460 51.372,46.800 52.063 C 46.140 52.754,45.600 53.496,45.600 53.712 C 45.600 53.929,45.279 54.397,44.888 54.753 C 44.496 55.109,43.478 56.390,42.626 57.600 C 41.774 58.810,40.924 59.860,40.738 59.933 C 40.552 60.007,40.400 60.233,40.400 60.437 C 40.400 60.641,39.860 61.372,39.200 62.063 C 38.540 62.754,38.000 63.490,38.000 63.699 C 38.000 63.908,37.460 64.583,36.800 65.200 C 36.140 65.817,35.600 66.481,35.600 66.676 C 35.600 66.872,34.880 67.828,34.000 68.800 C 33.120 69.772,32.400 70.728,32.400 70.924 C 32.400 71.119,31.860 71.783,31.200 72.400 C 30.540 73.017,30.000 73.692,30.000 73.901 C 30.000 74.110,29.505 74.803,28.900 75.441 C 27.572 76.840,24.800 80.594,24.800 80.993 C 24.800 81.150,24.260 81.783,23.600 82.400 C 22.940 83.017,22.400 83.681,22.400 83.876 C 22.400 84.072,21.680 85.028,20.800 86.000 C 19.920 86.972,19.200 87.928,19.200 88.124 C 19.200 88.319,18.660 88.983,18.000 89.600 C 17.340 90.217,16.800 90.903,16.800 91.126 C 16.800 91.349,16.215 92.151,15.500 92.908 C 13.965 94.535,13.328 95.317,12.005 97.200 C 11.464 97.970,10.687 98.960,10.277 99.400 C 9.867 99.840,9.265 100.709,8.940 101.331 C 8.614 101.954,7.819 103.015,7.174 103.691 C 6.528 104.366,6.000 105.090,6.000 105.299 C 6.000 105.508,5.460 106.183,4.800 106.800 C 4.140 107.417,3.600 108.091,3.600 108.298 C 3.600 108.506,3.240 109.002,2.800 109.400 C 2.360 109.798,2.000 110.366,2.000 110.662 C 2.000 110.958,1.820 111.200,1.600 111.200 C 1.380 111.200,1.200 111.545,1.200 111.967 C 1.200 112.388,0.975 112.809,0.700 112.900 C 0.324 113.026,0.200 114.930,0.200 120.601 C 0.200 126.272,0.324 128.175,0.700 128.300 C 0.975 128.392,1.200 128.812,1.200 129.233 C 1.200 129.655,1.350 130.000,1.532 130.000 C 1.715 130.000,2.120 130.493,2.432 131.095 C 3.061 132.308,6.188 135.600,6.711 135.600 C 6.894 135.600,7.700 136.185,8.503 136.900 C 10.948 139.079,12.949 140.643,14.000 141.198 C 14.550 141.488,15.291 142.057,15.647 142.463 C 16.003 142.868,16.476 143.200,16.699 143.200 C 16.921 143.200,17.845 143.920,18.752 144.800 C 19.659 145.680,20.598 146.400,20.840 146.400 C 21.081 146.400,21.783 146.940,22.400 147.600 C 23.017 148.260,23.725 148.800,23.974 148.800 C 24.223 148.800,25.027 149.385,25.760 150.100 C 27.327 151.627,28.103 152.265,30.000 153.587 C 30.770 154.123,31.670 154.857,32.000 155.218 C 32.330 155.579,33.039 156.107,33.575 156.391 C 34.111 156.676,34.741 157.067,34.975 157.262 C 37.291 159.189,37.846 159.599,38.140 159.600 C 38.326 159.600,38.983 160.140,39.600 160.800 C 40.217 161.460,40.917 162.000,41.157 162.000 C 41.397 162.000,42.109 162.540,42.740 163.200 C 43.371 163.860,44.002 164.400,44.143 164.400 C 44.284 164.400,45.141 165.120,46.048 166.000 C 46.955 166.880,47.856 167.600,48.052 167.600 C 48.247 167.600,48.972 168.140,49.663 168.800 C 50.354 169.460,51.096 170.000,51.312 170.000 C 51.529 170.000,51.997 170.324,52.353 170.719 C 52.709 171.114,53.630 171.873,54.400 172.406 C 55.170 172.938,56.019 173.560,56.286 173.787 C 57.732 175.015,57.994 175.200,58.295 175.200 C 58.476 175.200,58.883 175.560,59.200 176.000 C 59.517 176.440,60.007 176.800,60.288 176.800 C 60.570 176.800,60.800 176.980,60.800 177.200 C 60.800 177.420,60.998 177.600,61.240 177.600 C 61.481 177.600,62.183 178.140,62.800 178.800 C 63.417 179.460,64.081 180.000,64.276 180.000 C 64.472 180.000,65.428 180.720,66.400 181.600 C 67.372 182.480,68.316 183.200,68.497 183.200 C 68.678 183.200,69.451 183.824,70.213 184.587 L 71.600 185.973 71.600 221.963 C 71.600 245.525,71.738 258.038,72.000 258.200 C 72.220 258.336,72.400 259.427,72.400 260.624 C 72.400 261.821,72.580 262.800,72.800 262.800 C 73.020 262.800,73.200 263.329,73.200 263.976 C 73.200 264.623,73.380 265.264,73.600 265.400 C 73.820 265.536,74.000 266.087,74.000 266.624 C 74.000 267.161,74.180 267.600,74.400 267.600 C 74.620 267.600,74.800 267.865,74.800 268.189 C 74.800 269.107,76.692 272.873,77.800 274.162 C 78.350 274.801,78.800 275.468,78.800 275.643 C 78.800 276.087,84.280 281.600,84.721 281.600 C 84.919 281.600,85.646 282.140,86.337 282.800 C 87.028 283.460,87.864 284.000,88.196 284.000 C 88.528 284.000,88.800 284.180,88.800 284.400 C 88.800 284.620,89.160 284.800,89.600 284.800 C 90.040 284.800,90.400 284.980,90.400 285.200 C 90.400 285.420,90.760 285.600,91.200 285.600 C 91.640 285.600,92.000 285.780,92.000 286.000 C 92.000 286.220,92.360 286.400,92.800 286.400 C 93.240 286.400,93.600 286.580,93.600 286.800 C 93.600 287.020,94.039 287.200,94.576 287.200 C 95.113 287.200,95.664 287.380,95.800 287.600 C 95.936 287.820,96.566 288.000,97.200 288.000 C 97.834 288.000,98.464 288.180,98.600 288.400 C 98.736 288.620,99.906 288.800,101.200 288.800 C 102.494 288.800,103.664 288.980,103.800 289.200 C 103.962 289.462,118.204 289.600,145.224 289.600 L 186.400 289.600 186.400 277.075 L 186.400 264.550 185.159 263.375 C 173.641 252.471,155.119 224.254,148.416 207.400 C 147.891 206.080,147.059 204.100,146.567 203.000 C 144.842 199.141,139.600 183.649,139.600 182.410 C 139.600 181.903,141.251 180.878,145.493 178.753 C 156.496 173.240,156.475 173.286,156.315 155.400 L 156.200 142.600 128.600 142.400 L 101.000 142.200 101.000 133.000 L 101.000 123.800 102.122 121.891 C 104.568 117.730,106.682 117.200,120.831 117.200 C 126.609 117.200,131.252 117.040,131.378 116.836 C 131.502 116.635,131.700 114.520,131.819 112.136 C 132.129 105.901,133.204 95.243,134.020 90.300 C 135.994 78.349,137.540 71.403,140.763 60.004 L 141.949 55.809 141.020 54.604 C 140.509 53.942,139.689 52.950,139.199 52.400 C 136.327 49.180,130.287 40.562,129.106 38.000 C 127.414 34.326,127.212 33.104,127.206 26.500 L 127.200 20.000 105.200 20.000 C 90.800 20.000,83.200 20.138,83.200 20.400 M330.052 87.071 C 327.458 89.115,327.600 86.179,327.600 137.738 C 327.600 189.584,327.475 187.103,329.957 184.446 C 330.597 183.761,331.281 183.200,331.476 183.200 C 331.672 183.200,332.628 182.480,333.600 181.600 C 334.572 180.720,335.528 180.000,335.724 180.000 C 335.919 180.000,336.556 179.505,337.140 178.900 C 337.723 178.295,338.695 177.545,339.300 177.232 C 340.537 176.594,340.682 176.194,339.800 175.855 C 339.272 175.653,339.200 170.497,339.200 132.793 C 339.200 94.905,339.128 89.822,338.581 88.762 C 337.113 85.925,332.634 85.037,330.052 87.071 M243.869 142.664 C 243.363 143.170,243.562 168.379,244.086 170.154 C 245.049 173.410,247.594 175.281,258.569 180.800 C 271.928 187.517,270.476 187.502,283.219 181.050 C 299.799 172.655,298.920 174.165,298.720 154.400 L 298.600 142.600 271.369 142.497 C 256.393 142.441,244.018 142.516,243.869 142.664 " stroke="none" fill="#04c2fc" fill-rule="evenodd"></path><path id="path3" d="M72.400 322.000 C 72.400 322.220,71.781 322.400,71.024 322.400 C 70.267 322.400,69.536 322.580,69.400 322.800 C 69.264 323.020,68.803 323.200,68.376 323.200 C 67.949 323.200,67.600 323.380,67.600 323.600 C 67.600 323.820,67.240 324.000,66.800 324.000 C 66.360 324.000,66.000 324.159,66.000 324.354 C 66.000 324.549,65.415 324.987,64.700 325.326 C 63.985 325.666,62.770 326.687,62.000 327.596 C 61.230 328.505,60.398 329.471,60.152 329.744 C 59.448 330.522,58.400 332.697,58.400 333.380 C 58.400 333.721,58.220 334.000,58.000 334.000 C 57.780 334.000,57.600 334.720,57.600 335.600 C 57.600 336.480,57.412 337.200,57.181 337.200 C 56.911 337.200,56.785 338.823,56.827 341.800 C 56.862 344.330,57.050 346.400,57.245 346.400 C 57.440 346.400,57.600 346.940,57.600 347.600 C 57.600 348.260,57.780 348.800,58.000 348.800 C 58.220 348.800,58.400 349.329,58.400 349.976 C 58.400 350.623,58.575 351.261,58.789 351.393 C 59.003 351.526,59.473 352.255,59.833 353.013 C 60.193 353.772,60.648 354.294,60.844 354.173 C 61.040 354.052,61.200 354.207,61.200 354.517 C 61.200 354.827,61.695 355.616,62.300 356.270 C 62.905 356.924,63.625 357.848,63.900 358.324 C 64.494 359.352,64.575 363.600,64.000 363.600 C 63.780 363.600,63.600 363.884,63.600 364.231 C 63.600 364.579,62.904 365.531,62.054 366.348 C 60.433 367.905,58.400 371.313,58.400 372.473 C 58.400 372.847,58.220 373.264,58.000 373.400 C 57.780 373.536,57.600 374.076,57.600 374.600 C 57.600 375.124,57.420 375.664,57.200 375.800 C 56.971 375.941,56.800 377.996,56.800 380.600 C 56.800 383.204,56.971 385.259,57.200 385.400 C 57.420 385.536,57.600 386.076,57.600 386.600 C 57.600 387.124,57.766 387.655,57.969 387.781 C 58.172 387.906,58.465 388.592,58.619 389.305 C 59.089 391.475,64.042 397.200,65.450 397.200 C 65.749 397.200,66.218 397.560,66.493 398.000 C 66.768 398.440,67.309 398.800,67.696 398.800 C 68.083 398.800,68.403 399.025,68.406 399.300 C 68.410 399.633,68.542 399.600,68.800 399.200 C 69.032 398.841,69.190 398.791,69.194 399.075 C 69.206 399.984,72.941 400.031,135.923 399.916 L 199.247 399.800 197.139 398.200 C 190.856 393.431,184.830 386.365,180.934 379.200 C 179.547 376.650,176.400 368.757,176.400 367.830 C 176.400 367.259,182.152 367.200,237.454 367.200 C 282.005 367.200,298.919 367.077,300.029 366.744 C 304.836 365.304,305.820 358.943,301.672 356.128 C 300.648 355.433,297.757 355.395,237.506 355.295 L 174.413 355.190 174.149 354.137 C 172.785 348.705,175.632 333.929,179.618 325.754 C 180.488 323.969,181.200 322.304,181.200 322.054 C 181.200 321.717,167.136 321.600,126.800 321.600 C 90.800 321.600,72.400 321.735,72.400 322.000 " stroke="none" fill="#38599b" fill-rule="evenodd"></path><path id="path4" d="M181.200 322.054 C 181.200 322.304,180.488 323.969,179.618 325.754 C 175.632 333.929,172.785 348.705,174.149 354.137 L 174.413 355.190 237.506 355.295 C 297.757 355.395,300.648 355.433,301.672 356.128 C 305.820 358.943,304.836 365.304,300.029 366.744 C 298.919 367.077,282.005 367.200,237.454 367.200 C 182.152 367.200,176.400 367.259,176.400 367.830 C 176.400 368.757,179.547 376.650,180.934 379.200 C 184.855 386.411,190.761 393.321,197.266 398.308 L 199.495 400.016 256.727 399.908 C 301.864 399.823,314.066 399.694,314.460 399.300 C 314.735 399.025,315.376 398.800,315.885 398.800 C 316.394 398.800,317.168 398.620,317.605 398.400 C 318.042 398.180,318.758 397.820,319.195 397.600 C 319.632 397.380,320.262 397.200,320.595 397.200 C 320.928 397.200,321.200 397.020,321.200 396.800 C 321.200 396.580,321.436 396.400,321.725 396.400 C 322.013 396.400,322.636 396.040,323.108 395.600 C 323.580 395.160,324.244 394.800,324.583 394.800 C 324.922 394.800,325.200 394.620,325.200 394.400 C 325.200 394.180,325.475 394.000,325.811 394.000 C 326.396 394.000,327.079 393.445,331.028 389.760 C 331.995 388.857,332.879 388.212,332.993 388.326 C 333.107 388.440,333.200 388.359,333.200 388.145 C 333.200 387.931,333.830 387.069,334.600 386.228 C 335.370 385.387,336.000 384.570,336.000 384.412 C 336.000 384.254,336.450 383.601,337.000 382.962 C 337.549 382.323,337.999 381.575,338.000 381.300 C 338.000 381.025,338.199 380.800,338.443 380.800 C 338.686 380.800,338.779 380.523,338.650 380.185 C 338.515 379.835,338.669 379.472,339.007 379.342 C 339.333 379.217,339.600 378.891,339.600 378.619 C 339.600 378.346,339.866 377.590,340.191 376.939 C 340.516 376.288,340.841 375.365,340.914 374.888 C 340.987 374.411,341.171 373.896,341.323 373.744 C 341.475 373.591,341.600 372.856,341.600 372.110 C 341.600 371.307,341.763 370.854,342.000 371.000 C 342.248 371.153,342.400 370.404,342.400 369.024 C 342.400 367.801,342.580 366.800,342.800 366.800 C 343.048 366.800,343.200 364.667,343.200 361.200 C 343.200 357.733,343.048 355.600,342.800 355.600 C 342.580 355.600,342.400 354.610,342.400 353.400 C 342.400 352.190,342.220 351.200,342.000 351.200 C 341.780 351.200,341.600 350.570,341.600 349.800 C 341.600 349.030,341.431 348.400,341.225 348.400 C 341.019 348.400,340.867 348.085,340.888 347.700 C 340.910 347.315,340.600 346.280,340.200 345.400 C 339.800 344.520,339.443 343.710,339.408 343.600 C 339.096 342.635,338.201 341.200,337.912 341.200 C 337.715 341.200,337.664 341.020,337.800 340.800 C 337.936 340.580,337.857 340.400,337.624 340.400 C 337.391 340.400,337.200 340.080,337.200 339.688 C 337.200 339.297,336.840 338.717,336.400 338.400 C 335.960 338.083,335.600 337.685,335.600 337.516 C 335.600 336.742,328.186 329.200,327.425 329.200 C 327.178 329.200,326.724 328.850,326.415 328.421 C 326.107 327.993,325.696 327.741,325.502 327.861 C 325.308 327.980,324.846 327.814,324.475 327.491 C 323.317 326.483,320.009 324.800,319.186 324.800 C 318.754 324.800,318.400 324.664,318.400 324.497 C 318.400 324.131,315.533 323.200,314.406 323.200 C 313.963 323.200,313.600 323.054,313.600 322.875 C 313.600 322.696,312.745 322.506,311.700 322.452 C 310.655 322.399,309.629 322.185,309.420 321.978 C 308.834 321.395,181.200 321.472,181.200 322.054 " stroke="none" fill="#5c74a4" fill-rule="evenodd"></path></g></svg>
